# xmcd
#
# Track frame offsets:
#	150
#	22850
#	47347
#	67895
#	91717
#	112092
#	132137
#	156730
#	179425
#	202435
#	222960
#	243972
#	263755
#	282377
#	301812
#	320147
#
# Disc length: 4531 seconds
#
# Revision: 1
# Processed by: cddbd v1.5PL3 Copyright (c) Steve Scherf et al.
# Submitted via: CDex 1.50Beta5
#
DISCID=e811b110
DTITLE=坂本冬美 - 坂本冬美全曲集
DYEAR=1995
DGENRE=Folk
TTITLE0=うずしお
TTITLE1=夜桜お七
TTITLE2=船で帰るあなた
TTITLE3=恋は火の舞剣の舞
TTITLE4=男惚れ
TTITLE5=火の国の女
TTITLE6=能登はいらんかいね
TTITLE7=雨あがり
TTITLE8=男の情話
TTITLE9=祝い酒
TTITLE10=あばれ太鼓
TTITLE11=どんでんがえし
TTITLE12=夢屋
TTITLE13=姉妹
TTITLE14=夢一途
TTITLE15=哀しみの予感
EXTD=
EXTT0=
EXTT1=
EXTT2=
EXTT3=
EXTT4=
EXTT5=
EXTT6=
EXTT7=
EXTT8=
EXTT9=
EXTT10=
EXTT11=
EXTT12=
EXTT13=
EXTT14=
EXTT15=
PLAYORDER=
